<svg xmlns="http://www.w3.org/2000/svg" shape-rendering="geometricPrecision" text-rendering="geometricPrecision" image-rendering="optimizeQuality" fill-rule="evenodd" clip-rule="evenodd" viewBox="0 0 512 511.999"><path fill-rule="nonzero" d="M222.41 102.242l-31.298 10.948c-8.805 3.357-17.175 3.216-23.334.844-3.335-1.285-6.105-3.252-8.085-5.727-2.162-2.701-3.34-5.931-3.282-9.493.076-4.473 2.127-9.304 6.719-13.96l.034-.032-.013-.013 73.841-73.841C244.304 3.656 249.795 0 256.001 0c6.206 0 11.697 3.656 19.008 10.968l73.841 73.841.341.375c4.368 4.551 6.325 9.263 6.399 13.63.058 3.58-1.114 6.806-3.26 9.493l-.375.426c-1.951 2.274-4.593 4.09-7.733 5.301-6.159 2.372-14.529 2.513-23.333-.845l-31.298-10.947v120.167h120.166l-10.948-31.299c-3.356-8.805-3.215-17.176-.843-23.333 1.284-3.334 3.252-6.106 5.727-8.085 2.701-2.162 5.932-3.341 9.492-3.282 4.475.075 9.305 2.126 13.96 6.718l.033.034.012-.012 73.842 73.841c7.311 7.311 10.968 12.802 10.968 19.008 0 6.207-3.657 11.697-10.968 19.008l-73.842 73.841-.374.341c-4.551 4.368-9.263 6.325-13.631 6.4-3.56.058-6.787-1.121-9.492-3.283-2.473-1.978-4.443-4.75-5.727-8.084-2.372-6.159-2.513-14.53.843-23.334l10.948-31.299H289.591v120.168l31.299-10.948c8.804-3.357 17.176-3.216 23.332-.844 3.335 1.285 6.108 3.252 8.086 5.727 2.162 2.702 3.341 5.932 3.282 9.493-.075 4.474-2.126 9.304-6.718 13.959l-.034.033.012.012-73.841 73.842c-7.311 7.312-12.802 10.968-19.008 10.968-6.206 0-11.697-3.656-19.009-10.968l-73.841-73.842-.341-.374c-4.367-4.55-6.325-9.263-6.399-13.63-.058-3.561 1.122-6.789 3.282-9.493 1.978-2.472 4.75-4.442 8.085-5.727 6.159-2.372 14.529-2.513 23.334.844l31.299 10.948V289.589H102.243l10.948 31.299c3.356 8.804 3.215 17.175.843 23.334-1.284 3.334-3.252 6.105-5.727 8.084-2.701 2.162-5.931 3.341-9.492 3.283-4.473-.076-9.305-2.127-13.96-6.719l-.033-.034-.012.012-73.842-73.841C3.658 267.696 0 262.207 0 255.999c0-6.206 3.658-11.697 10.968-19.008L84.81 163.15l.374-.342c4.551-4.367 9.263-6.324 13.631-6.398 3.579-.059 6.806 1.114 9.492 3.26l.427.375c2.273 1.95 4.09 4.592 5.3 7.732 2.372 6.16 2.513 14.529-.844 23.333l-10.947 31.299h120.168l-.001-120.167zm-34.994.356l38.344-13.413a5.626 5.626 0 017.903 5.146v133.704a5.626 5.626 0 01-5.627 5.626H94.332v-.016a5.611 5.611 0 01-5.297-7.456l13.63-38.951c2.354-6.094 2.385-11.588.909-15.417-.529-1.374-1.224-2.463-2.03-3.191l-.226-.17c-.692-.552-1.488-.856-2.328-.842-1.63.027-3.663 1.018-5.99 3.241l-74.075 74.088c-5.113 5.115-7.673 8.444-7.673 11.052 0 2.608 2.56 5.937 7.673 11.052l73.842 73.84-.011.011c2.429 2.388 4.547 3.45 6.234 3.478.859.013 1.653-.281 2.328-.82.903-.722 1.679-1.883 2.256-3.382 1.466-3.805 1.444-9.256-.865-15.304l-13.523-38.635a5.626 5.626 0 015.146-7.902h133.704a5.626 5.626 0 015.627 5.626v133.705h-.016a5.61 5.61 0 01-7.456 5.296l-38.951-13.63c-6.095-2.352-11.589-2.384-15.418-.909-1.5.577-2.66 1.354-3.382 2.257-.538.674-.834 1.469-.82 2.328.026 1.629 1.018 3.662 3.241 5.99l74.088 74.074c5.115 5.115 8.444 7.673 11.052 7.673 2.609 0 5.937-2.558 11.051-7.673l73.841-73.841.011.011c2.388-2.429 3.45-4.547 3.478-6.234.013-.859-.281-1.654-.821-2.328-.721-.903-1.882-1.678-3.382-2.257-3.804-1.464-9.255-1.443-15.303.865l-38.635 13.524a5.627 5.627 0 01-7.903-5.146V283.963a5.627 5.627 0 015.627-5.626h133.703v.015a5.61 5.61 0 015.297 7.457l-13.63 38.951c-2.353 6.094-2.384 11.589-.909 15.418.577 1.499 1.353 2.66 2.256 3.382.675.538 1.469.833 2.328.82 1.63-.027 3.663-1.019 5.99-3.241l74.075-74.088c5.115-5.115 7.673-8.443 7.673-11.052 0-2.608-2.558-5.937-7.673-11.052l-73.842-73.84.011-.011c-2.43-2.389-4.547-3.45-6.234-3.478-.859-.014-1.653.281-2.328.82-.903.722-1.678 1.882-2.256 3.383-1.464 3.804-1.445 9.253.865 15.302l13.523 38.636a5.626 5.626 0 01-5.146 7.902H283.965a5.627 5.627 0 01-5.627-5.626V94.331h.016a5.61 5.61 0 017.457-5.296l38.951 13.63c6.093 2.352 11.588 2.384 15.416.909 1.375-.53 2.463-1.225 3.191-2.031l.17-.226c.552-.691.856-1.487.843-2.328-.027-1.63-1.019-3.662-3.241-5.989l-74.089-74.076c-5.114-5.114-8.443-7.672-11.051-7.672-2.608 0-5.937 2.558-11.052 7.672l-73.841 73.842-.01-.011c-2.388 2.429-3.45 4.547-3.478 6.234-.014.859.28 1.654.82 2.328.722.903 1.882 1.68 3.382 2.257 3.804 1.465 9.255 1.443 15.303-.865l.291-.111z"/></svg>